<svg width="24" height="24" viewBox="0 0 24 24" fill="none" xmlns="http://www.w3.org/2000/svg">
<g clip-path="url(#clip0)">
<path d="M24 12C24 9.62663 23.2962 7.30655 21.9776 5.33316C20.6591 3.35977 18.7849 1.8217 16.5922 0.913451C14.3995 0.00519937 11.9867 -0.232441 9.65892 0.230582C7.33115 0.693605 5.19295 1.83649 3.51472 3.51472C1.83649 5.19295 0.693605 7.33115 0.230582 9.65892C-0.232441 11.9867 0.00519937 14.3995 0.913451 16.5922C1.8217 18.7849 3.35977 20.6591 5.33316 21.9776C7.30655 23.2962 9.62663 24 12 24C15.1826 24 18.2349 22.7357 20.4853 20.4853C22.7357 18.2349 24 15.1826 24 12ZM21.9113 12C21.9113 13.9603 21.33 15.8765 20.2409 17.5064C19.1518 19.1363 17.6039 20.4066 15.7929 21.1568C13.9818 21.907 11.989 22.1032 10.0664 21.7208C8.14382 21.3384 6.37781 20.3944 4.99169 19.0083C3.60558 17.6222 2.66162 15.8562 2.2792 13.9336C1.89677 12.011 2.09305 10.0182 2.8432 8.20713C3.59336 6.39609 4.86371 4.84816 6.49361 3.7591C8.12351 2.67004 10.0397 2.08876 12 2.08876C14.628 2.09074 17.1478 3.1356 19.0061 4.99389C20.8644 6.85218 21.9093 9.37199 21.9113 12Z" fill="#016677"/>
<path d="M13.3051 4.57129H10.6951V7.18129H13.3051V4.57129Z" fill="#016677"/>
<path d="M13.3051 16.6462V11.5687V8.95874H10.8301H9.6189V11.5687H10.8301V16.6462H9.6189V19.2562H10.8301H13.3051H14.3814V16.6462H13.3051Z" fill="#016677"/>
</g>
<defs>
<clipPath id="clip0">
<rect width="24" height="24" fill="white"/>
</clipPath>
</defs>
</svg>
