<svg width="24" height="24" viewBox="0 0 24 24" fill="none" xmlns="http://www.w3.org/2000/svg">
<path d="M18.8633 16.3408L16.4339 14.6434C16.1164 14.4222 15.7447 14.3052 15.3598 14.3052C14.7475 14.3052 14.1729 14.6055 13.8228 15.1079L13.2589 15.916C12.3137 15.2822 11.2586 14.3971 10.2534 13.392C9.24847 12.3868 8.36334 11.3319 7.72943 10.3867L8.53729 9.82312C8.94928 9.5362 9.22394 9.10681 9.31146 8.61353C9.39862 8.12116 9.28876 7.62329 9.00165 7.21112L7.30463 4.78186C6.82672 4.09815 5.92291 3.79895 5.16193 4.08039C4.94 4.1626 4.73346 4.26312 4.53021 4.39038L4.1944 4.62695C4.1109 4.69214 4.03326 4.76319 3.95856 4.83771C3.54913 5.24713 3.25836 5.76496 3.09503 6.37726C2.39557 8.99896 4.12811 12.9625 7.4057 16.2399C10.1581 18.9923 13.4647 20.7023 16.0355 20.7025C16.0355 20.7025 16.0355 20.7025 16.0358 20.7025C16.4756 20.7025 16.8906 20.6512 17.2689 20.5504C17.8804 20.3868 18.3983 20.0964 18.8077 19.687C18.8824 19.6125 18.9538 19.5347 19.03 19.4358L19.2662 19.0983C19.3826 18.9121 19.4833 18.7052 19.565 18.4835C19.851 17.7109 19.5628 16.8298 18.8633 16.3408Z" fill="#016677"/>
<path d="M20.6838 3.29761H11.6838C11.4766 3.29761 11.3088 3.46552 11.3088 3.67261V8.92261C11.3088 9.1297 11.4766 9.29761 11.6838 9.29761H13.015L13.9097 11.2032C13.9716 11.3348 14.1038 11.4189 14.2491 11.4189C14.3945 11.4189 14.5267 11.3348 14.5886 11.2034L15.4836 9.29761H20.6838C20.8911 9.29761 21.0588 9.1297 21.0588 8.92261V3.67261C21.0588 3.46552 20.8911 3.29761 20.6838 3.29761ZM18.7854 7.42261H13.5823C13.375 7.42261 13.2073 7.2547 13.2073 7.04761C13.2073 6.84052 13.375 6.67261 13.5823 6.67261H18.7854C18.9927 6.67261 19.1604 6.84052 19.1604 7.04761C19.1604 7.2547 18.9927 7.42261 18.7854 7.42261ZM18.7854 5.92261H13.5823C13.375 5.92261 13.2073 5.7547 13.2073 5.54761C13.2073 5.34052 13.375 5.17261 13.5823 5.17261H18.7854C18.9927 5.17261 19.1604 5.34052 19.1604 5.54761C19.1604 5.7547 18.9927 5.92261 18.7854 5.92261Z" fill="#016677"/>
</svg>
