<svg width="29" height="29" viewBox="0 0 29 29" fill="none" xmlns="http://www.w3.org/2000/svg">
<path d="M26.2857 14.8571C24.9286 12.75 23.2277 11.1741 21.183 10.1294C21.7277 11.058 22 12.0625 22 13.1428C22 14.7946 21.4129 16.2076 20.2388 17.3817C19.0647 18.5558 17.6518 19.1428 16 19.1428C14.3482 19.1428 12.9353 18.5558 11.7612 17.3817C10.5871 16.2076 10 14.7946 10 13.1428C10 12.0625 10.2723 11.058 10.817 10.1294C8.77232 11.1741 7.07143 12.75 5.71429 14.8571C6.90179 16.6875 8.39062 18.1451 10.1808 19.2299C11.971 20.3147 13.9107 20.8571 16 20.8571C18.0893 20.8571 20.029 20.3147 21.8192 19.2299C23.6094 18.1451 25.0982 16.6875 26.2857 14.8571ZM16.6429 9.71425C16.6429 9.53568 16.5804 9.38389 16.4554 9.25889C16.3304 9.13389 16.1786 9.07139 16 9.07139C14.8839 9.07139 13.9263 9.47095 13.1272 10.2701C12.3281 11.0692 11.9286 12.0268 11.9286 13.1428C11.9286 13.3214 11.9911 13.4732 12.1161 13.5982C12.2411 13.7232 12.3929 13.7857 12.5714 13.7857C12.75 13.7857 12.9018 13.7232 13.0268 13.5982C13.1518 13.4732 13.2143 13.3214 13.2143 13.1428C13.2143 12.375 13.4866 11.7187 14.0312 11.1741C14.5759 10.6294 15.2321 10.3571 16 10.3571C16.1786 10.3571 16.3304 10.2946 16.4554 10.1696C16.5804 10.0446 16.6429 9.89282 16.6429 9.71425ZM28 14.8571C28 15.1607 27.9107 15.4687 27.7321 15.7812C26.4821 17.8348 24.8013 19.4799 22.6897 20.7165C20.5781 21.9531 18.3482 22.5714 16 22.5714C13.6518 22.5714 11.4219 21.9509 9.31027 20.7098C7.19866 19.4687 5.51786 17.8259 4.26786 15.7812C4.08929 15.4687 4 15.1607 4 14.8571C4 14.5535 4.08929 14.2455 4.26786 13.933C5.51786 11.8884 7.19866 10.2455 9.31027 9.00443C11.4219 7.76336 13.6518 7.14282 16 7.14282C18.3482 7.14282 20.5781 7.76336 22.6897 9.00443C24.8013 10.2455 26.4821 11.8884 27.7321 13.933C27.9107 14.2455 28 14.5535 28 14.8571Z" fill="#01859C"/>
<rect x="1.29289" y="26.0416" width="35" height="3" transform="rotate(-45 1.29289 26.0416)" fill="#01859C" stroke="white"/>
</svg>
