<svg width="24" height="24" viewBox="0 0 24 24" fill="none" xmlns="http://www.w3.org/2000/svg">
<path fill-rule="evenodd" clip-rule="evenodd" d="M6.33058 7.20292V10.2556H5.0223C4.0585 10.2556 3.27783 11.0362 3.27783 12V20.7221C3.27783 21.6859 4.0585 22.4664 5.0223 22.4664H18.9775C19.9413 22.4664 20.7221 21.6859 20.7221 20.7221V12C20.7221 11.0362 19.9413 10.2556 18.9775 10.2556H17.6693V7.20292C17.6693 4.07179 15.131 1.5336 12 1.5336C8.86892 1.5336 6.33058 4.07174 6.33058 7.20292ZM8.51113 10.2556V7.20292C8.51113 5.27539 10.0723 3.71405 11.9999 3.71405C13.9275 3.71405 15.4888 5.27539 15.4888 7.20292V10.2556H8.51113ZM10.2555 15.0527C10.2555 14.089 11.0361 13.3084 11.9999 13.3084C12.9637 13.3084 13.7443 14.089 13.7443 15.0527C13.7443 15.6677 13.4258 16.2085 12.9463 16.5181C12.9463 16.5181 13.1167 17.5475 13.3083 18.7597C13.3083 19.1215 13.0161 19.4137 12.6541 19.4137H11.3457C10.9838 19.4137 10.6916 19.1215 10.6916 18.7597L11.0536 16.5181C10.574 16.2085 10.2555 15.6677 10.2555 15.0527Z" fill="#01859C"/>
</svg>
